<?xml version="1.0" encoding="utf-8"?>
<!-- Generator: Adobe Illustrator 12.0.1, SVG Export Plug-In  -->
<!DOCTYPE svg PUBLIC "-//W3C//DTD SVG 1.0//EN" "http://www.w3.org/TR/2001/REC-SVG-20010904/DTD/svg10.dtd" [
	<!ENTITY ns_flows "http://ns.adobe.com/Flows/1.0/">
	<!ENTITY ns_svg "http://www.w3.org/2000/svg">
	<!ENTITY ns_xlink "http://www.w3.org/1999/xlink">
]>

<svg style="overflow: hidden;" height="40" version="1.1" width="40" xmlns="http://www.w3.org/2000/svg"><defs style="-webkit-tap-highlight-color: rgba(0, 0, 0, 0); "><linearGradient style="-webkit-tap-highlight-color: rgba(0, 0, 0, 0); " id="47890-_0050af-_002c62" x1="0" y1="1" x2="6.123031769111886e-17" y2="0" gradientTransform="matrix(1,0,0,1,-4,-4)"><stop style="-webkit-tap-highlight-color: rgba(0, 0, 0, 0); " offset="0%" stop-color="#0050af"></stop><stop style="-webkit-tap-highlight-color: rgba(0, 0, 0, 0); " offset="100%" stop-color="#002c62"></stop></linearGradient></defs><path style="-webkit-tap-highlight-color: rgba(0, 0, 0, 0); stroke-linejoin: round; opacity: 0; " fill="none" stroke="#ffffff" d="M15.5,2.833C11.634,2.833,8.5,5.9670000000000005,8.5,9.833C8.5,13.692,12.445,14.77,12.722999999999999,19.332H18.276C18.554,14.77,22.5,13.693000000000001,22.5,9.833C22.5,5.968,19.366,2.833,15.5,2.833ZM15.5,28.166C17.394,28.166,17.983,27.139,18.167,26.5H12.833000000000002C13.017,27.139,13.606,28.166,15.5,28.166ZM12.75,25.498H18.25V20.334000000000003H12.75V25.498Z" stroke-width="3" stroke-linejoin="round" opacity="0" transform="matrix(1,0,0,1,4,4)"></path><path style="-webkit-tap-highlight-color: rgba(0, 0, 0, 0); opacity: 1; fill-opacity: 1; " stroke="none" d="M15.5,2.833C11.634,2.833,8.5,5.9670000000000005,8.5,9.833C8.5,13.692,12.445,14.77,12.722999999999999,19.332H18.276C18.554,14.77,22.5,13.693000000000001,22.5,9.833C22.5,5.968,19.366,2.833,15.5,2.833ZM15.5,28.166C17.394,28.166,17.983,27.139,18.167,26.5H12.833000000000002C13.017,27.139,13.606,28.166,15.5,28.166ZM12.75,25.498H18.25V20.334000000000003H12.75V25.498Z" transform="matrix(1,0,0,1,4,4)" opacity="1" fill-opacity="1" fill="#333333"></path></svg>