<?xml version="1.0" encoding="utf-8"?>
<!-- Generator: Adobe Illustrator 12.0.1, SVG Export Plug-In  -->
<!DOCTYPE svg PUBLIC "-//W3C//DTD SVG 1.0//EN" "http://www.w3.org/TR/2001/REC-SVG-20010904/DTD/svg10.dtd" [
	<!ENTITY ns_flows "http://ns.adobe.com/Flows/1.0/">
	<!ENTITY ns_svg "http://www.w3.org/2000/svg">
	<!ENTITY ns_xlink "http://www.w3.org/1999/xlink">
]>

<svg style="overflow: hidden; " height="40" version="1.1" width="40" xmlns="http://www.w3.org/2000/svg"><defs style="-webkit-tap-highlight-color: rgba(0, 0, 0, 0); "><linearGradient style="-webkit-tap-highlight-color: rgba(0, 0, 0, 0); " id="48190-_0050af-_002c62" x1="0" y1="1" x2="6.123031769111886e-17" y2="0" gradientTransform="matrix(1,0,0,1,-4,-4)"><stop style="-webkit-tap-highlight-color: rgba(0, 0, 0, 0); " offset="0%" stop-color="#0050af"></stop><stop style="-webkit-tap-highlight-color: rgba(0, 0, 0, 0); " offset="100%" stop-color="#002c62"></stop></linearGradient></defs><path style="-webkit-tap-highlight-color: rgba(0, 0, 0, 0); stroke-linejoin: round; opacity: 0; " fill="none" stroke="#ffffff" d="M12.75,25.498H18.25V20.334000000000003H12.75V25.498ZM15.5,28.166C17.394,28.166,17.983,27.139,18.167,26.5H12.833000000000002C13.017,27.139,13.606,28.166,15.5,28.166ZM15.5,2.833C11.634,2.833,8.5,5.9670000000000005,8.5,9.833C8.5,13.692,12.445,14.77,12.722999999999999,19.332H13.994C13.985,19.307000000000002,13.97,19.283,13.965,19.254L11.965,8.256C11.922,8.011000000000001,12.064,7.771,12.3,7.6930000000000005C12.537,7.615,12.794,7.719,12.905000000000001,7.9430000000000005L13.458000000000002,9.049000000000001L14.011000000000003,7.943000000000001C14.095000000000002,7.7730000000000015,14.268000000000002,7.666000000000001,14.457000000000003,7.666000000000001C14.646000000000003,7.666000000000001,14.819000000000003,7.7730000000000015,14.903000000000002,7.943000000000001L15.456000000000003,9.049000000000001L16.009000000000004,7.943000000000001C16.093000000000004,7.7730000000000015,16.266000000000005,7.666000000000001,16.457000000000004,7.666000000000001C16.646000000000004,7.666000000000001,16.817000000000004,7.7730000000000015,16.903000000000006,7.943000000000001L17.457000000000004,9.049000000000001L18.010000000000005,7.943000000000001C18.121000000000006,7.719000000000001,18.378000000000004,7.614000000000002,18.614000000000004,7.693000000000001S18.991000000000003,8.011000000000001,18.947000000000003,8.256000000000002L16.948000000000004,19.254C16.943000000000005,19.283,16.928000000000004,19.307000000000002,16.919000000000004,19.332H18.275000000000006C18.553000000000004,14.77,22.499000000000006,13.693000000000001,22.499000000000006,9.833C22.5,5.968,19.366,2.833,15.5,2.833ZM17.458,10.666C17.267,10.666,17.093999999999998,10.559000000000001,17.011999999999997,10.391L16.458,9.285L15.904999999999998,10.391C15.818999999999997,10.559,15.647999999999998,10.666,15.458999999999998,10.666C15.267999999999997,10.666,15.094999999999997,10.559000000000001,15.009999999999998,10.391L14.456999999999997,9.285L13.903999999999996,10.391C13.819999999999997,10.559,13.646999999999997,10.666,13.457999999999997,10.666C13.445999999999996,10.666,13.432999999999996,10.666,13.420999999999996,10.665000000000001L14.874999999999996,18.666H16.041999999999998L17.496,10.665000000000001C17.482,10.666,17.47,10.666,17.458,10.666Z" stroke-width="3" stroke-linejoin="round" opacity="0" transform="matrix(1,0,0,1,4,4)"></path><path style="-webkit-tap-highlight-color: rgba(0, 0, 0, 0); opacity: 1; fill-opacity: 1; " fill="#ababab" stroke="none" d="M12.75,25.498H18.25V20.334000000000003H12.75V25.498ZM15.5,28.166C17.394,28.166,17.983,27.139,18.167,26.5H12.833000000000002C13.017,27.139,13.606,28.166,15.5,28.166ZM15.5,2.833C11.634,2.833,8.5,5.9670000000000005,8.5,9.833C8.5,13.692,12.445,14.77,12.722999999999999,19.332H13.994C13.985,19.307000000000002,13.97,19.283,13.965,19.254L11.965,8.256C11.922,8.011000000000001,12.064,7.771,12.3,7.6930000000000005C12.537,7.615,12.794,7.719,12.905000000000001,7.9430000000000005L13.458000000000002,9.049000000000001L14.011000000000003,7.943000000000001C14.095000000000002,7.7730000000000015,14.268000000000002,7.666000000000001,14.457000000000003,7.666000000000001C14.646000000000003,7.666000000000001,14.819000000000003,7.7730000000000015,14.903000000000002,7.943000000000001L15.456000000000003,9.049000000000001L16.009000000000004,7.943000000000001C16.093000000000004,7.7730000000000015,16.266000000000005,7.666000000000001,16.457000000000004,7.666000000000001C16.646000000000004,7.666000000000001,16.817000000000004,7.7730000000000015,16.903000000000006,7.943000000000001L17.457000000000004,9.049000000000001L18.010000000000005,7.943000000000001C18.121000000000006,7.719000000000001,18.378000000000004,7.614000000000002,18.614000000000004,7.693000000000001S18.991000000000003,8.011000000000001,18.947000000000003,8.256000000000002L16.948000000000004,19.254C16.943000000000005,19.283,16.928000000000004,19.307000000000002,16.919000000000004,19.332H18.275000000000006C18.553000000000004,14.77,22.499000000000006,13.693000000000001,22.499000000000006,9.833C22.5,5.968,19.366,2.833,15.5,2.833ZM17.458,10.666C17.267,10.666,17.093999999999998,10.559000000000001,17.011999999999997,10.391L16.458,9.285L15.904999999999998,10.391C15.818999999999997,10.559,15.647999999999998,10.666,15.458999999999998,10.666C15.267999999999997,10.666,15.094999999999997,10.559000000000001,15.009999999999998,10.391L14.456999999999997,9.285L13.903999999999996,10.391C13.819999999999997,10.559,13.646999999999997,10.666,13.457999999999997,10.666C13.445999999999996,10.666,13.432999999999996,10.666,13.420999999999996,10.665000000000001L14.874999999999996,18.666H16.041999999999998L17.496,10.665000000000001C17.482,10.666,17.47,10.666,17.458,10.666Z" transform="matrix(1,0,0,1,4,4)" opacity="1" fill-opacity="1"></path></svg>